<mxfile host="app.diagrams.net" agent="Mozilla/5.0 (Windows NT 10.0; Win64; x64) AppleWebKit/537.36 (KHTML, like Gecko) Chrome/129.0.0.0 Safari/537.36" version="24.7.17">
  <diagram name="Página-1" id="HpcF04neRlfk61U_BmMo">
    <mxGraphModel dx="1100" dy="635" grid="1" gridSize="10" guides="1" tooltips="1" connect="1" arrows="1" fold="1" page="1" pageScale="1" pageWidth="827" pageHeight="1169" math="0" shadow="0">
      <root>
        <mxCell id="0" />
        <mxCell id="1" parent="0" />
        <mxCell id="HlTpHQT_LpQZvoVh_AyP-177" value="Administración Dispositivos" style="swimlane;whiteSpace=wrap;html=1;" vertex="1" parent="1">
          <mxGeometry x="80" y="40" width="2510" height="1180" as="geometry" />
        </mxCell>
        <mxCell id="HlTpHQT_LpQZvoVh_AyP-178" style="edgeStyle=orthogonalEdgeStyle;rounded=0;orthogonalLoop=1;jettySize=auto;html=1;entryX=0;entryY=0.5;entryDx=0;entryDy=0;endArrow=none;endFill=0;" edge="1" parent="HlTpHQT_LpQZvoVh_AyP-177" target="HlTpHQT_LpQZvoVh_AyP-183">
          <mxGeometry relative="1" as="geometry">
            <Array as="points">
              <mxPoint x="183" y="889" />
              <mxPoint x="183" y="889" />
            </Array>
            <mxPoint x="49" y="889" as="sourcePoint" />
          </mxGeometry>
        </mxCell>
        <mxCell id="HlTpHQT_LpQZvoVh_AyP-179" value="Usuario" style="shape=umlActor;verticalLabelPosition=bottom;verticalAlign=top;html=1;outlineConnect=0;" vertex="1" parent="HlTpHQT_LpQZvoVh_AyP-177">
          <mxGeometry x="9" y="844" width="50" height="90" as="geometry" />
        </mxCell>
        <mxCell id="HlTpHQT_LpQZvoVh_AyP-180" style="edgeStyle=orthogonalEdgeStyle;rounded=0;orthogonalLoop=1;jettySize=auto;html=1;endArrow=none;endFill=0;" edge="1" parent="HlTpHQT_LpQZvoVh_AyP-177" source="HlTpHQT_LpQZvoVh_AyP-181" target="HlTpHQT_LpQZvoVh_AyP-186">
          <mxGeometry relative="1" as="geometry">
            <Array as="points">
              <mxPoint x="932" y="348" />
              <mxPoint x="932" y="348" />
            </Array>
          </mxGeometry>
        </mxCell>
        <mxCell id="HlTpHQT_LpQZvoVh_AyP-181" value="BaseRouter" style="rounded=0;whiteSpace=wrap;html=1;" vertex="1" parent="HlTpHQT_LpQZvoVh_AyP-177">
          <mxGeometry x="542" y="195" width="120" height="173" as="geometry" />
        </mxCell>
        <mxCell id="HlTpHQT_LpQZvoVh_AyP-182" style="edgeStyle=orthogonalEdgeStyle;rounded=0;orthogonalLoop=1;jettySize=auto;html=1;endArrow=none;endFill=0;" edge="1" parent="HlTpHQT_LpQZvoVh_AyP-177" source="HlTpHQT_LpQZvoVh_AyP-183" target="HlTpHQT_LpQZvoVh_AyP-181">
          <mxGeometry relative="1" as="geometry">
            <Array as="points">
              <mxPoint x="602" y="558" />
              <mxPoint x="602" y="558" />
            </Array>
          </mxGeometry>
        </mxCell>
        <mxCell id="HlTpHQT_LpQZvoVh_AyP-183" value="App" style="rounded=0;whiteSpace=wrap;html=1;" vertex="1" parent="HlTpHQT_LpQZvoVh_AyP-177">
          <mxGeometry x="552" y="849" width="140" height="80" as="geometry" />
        </mxCell>
        <mxCell id="HlTpHQT_LpQZvoVh_AyP-184" value="API" style="rounded=0;whiteSpace=wrap;html=1;" vertex="1" parent="HlTpHQT_LpQZvoVh_AyP-177">
          <mxGeometry x="1643" y="1011" width="310" height="130" as="geometry" />
        </mxCell>
        <mxCell id="HlTpHQT_LpQZvoVh_AyP-185" style="edgeStyle=orthogonalEdgeStyle;rounded=0;orthogonalLoop=1;jettySize=auto;html=1;endArrow=none;endFill=0;" edge="1" parent="HlTpHQT_LpQZvoVh_AyP-177" source="HlTpHQT_LpQZvoVh_AyP-186" target="HlTpHQT_LpQZvoVh_AyP-184">
          <mxGeometry relative="1" as="geometry">
            <Array as="points">
              <mxPoint x="1729" y="878" />
              <mxPoint x="1729" y="878" />
            </Array>
            <mxPoint x="1699" y="748" as="targetPoint" />
          </mxGeometry>
        </mxCell>
        <mxCell id="HlTpHQT_LpQZvoVh_AyP-186" value="Dispositivos" style="rounded=0;whiteSpace=wrap;html=1;" vertex="1" parent="HlTpHQT_LpQZvoVh_AyP-177">
          <mxGeometry x="1504" y="425" width="170" height="70" as="geometry" />
        </mxCell>
        <mxCell id="HlTpHQT_LpQZvoVh_AyP-187" value="" style="endArrow=open;html=1;rounded=0;endFill=0;" edge="1" parent="HlTpHQT_LpQZvoVh_AyP-177">
          <mxGeometry width="50" height="50" relative="1" as="geometry">
            <mxPoint x="405" y="929.5900000000001" as="sourcePoint" />
            <mxPoint x="195" y="929" as="targetPoint" />
            <Array as="points">
              <mxPoint x="345" y="929" />
            </Array>
          </mxGeometry>
        </mxCell>
        <mxCell id="HlTpHQT_LpQZvoVh_AyP-188" value="2.5[No existen dispositivos registrados]:Notificar que no se tiene dispositivos registrados" style="edgeLabel;html=1;align=center;verticalAlign=middle;resizable=0;points=[];" vertex="1" connectable="0" parent="HlTpHQT_LpQZvoVh_AyP-187">
          <mxGeometry x="-0.1067" y="-2" relative="1" as="geometry">
            <mxPoint x="1" y="-17" as="offset" />
          </mxGeometry>
        </mxCell>
        <mxCell id="HlTpHQT_LpQZvoVh_AyP-189" value="" style="endArrow=classic;html=1;rounded=0;endFill=1;" edge="1" parent="HlTpHQT_LpQZvoVh_AyP-177">
          <mxGeometry width="50" height="50" relative="1" as="geometry">
            <mxPoint x="195" y="806.2" as="sourcePoint" />
            <mxPoint x="445" y="806" as="targetPoint" />
          </mxGeometry>
        </mxCell>
        <mxCell id="HlTpHQT_LpQZvoVh_AyP-190" value="&lt;div&gt;2.5[Si existen dispositivos registrados]:Observar datos de dispositivos&lt;br&gt;&lt;/div&gt;" style="edgeLabel;html=1;align=center;verticalAlign=middle;resizable=0;points=[];" vertex="1" connectable="0" parent="HlTpHQT_LpQZvoVh_AyP-189">
          <mxGeometry x="-0.0828" y="-3" relative="1" as="geometry">
            <mxPoint x="26" y="-20" as="offset" />
          </mxGeometry>
        </mxCell>
        <mxCell id="HlTpHQT_LpQZvoVh_AyP-191" value="" style="endArrow=classic;html=1;rounded=0;" edge="1" parent="HlTpHQT_LpQZvoVh_AyP-177">
          <mxGeometry width="50" height="50" relative="1" as="geometry">
            <mxPoint x="574" y="678" as="sourcePoint" />
            <mxPoint x="574" y="478" as="targetPoint" />
          </mxGeometry>
        </mxCell>
        <mxCell id="HlTpHQT_LpQZvoVh_AyP-192" value="&lt;div&gt;1.1:Enviar peticion de cambio de pagina&lt;/div&gt;" style="edgeLabel;html=1;align=center;verticalAlign=middle;resizable=0;points=[];" vertex="1" connectable="0" parent="HlTpHQT_LpQZvoVh_AyP-191">
          <mxGeometry x="0.0013" y="2" relative="1" as="geometry">
            <mxPoint x="-107" y="-50" as="offset" />
          </mxGeometry>
        </mxCell>
        <mxCell id="HlTpHQT_LpQZvoVh_AyP-193" value="" style="endArrow=classic;html=1;rounded=0;" edge="1" parent="HlTpHQT_LpQZvoVh_AyP-177">
          <mxGeometry width="50" height="50" relative="1" as="geometry">
            <mxPoint x="902" y="328" as="sourcePoint" />
            <mxPoint x="1152" y="328" as="targetPoint" />
          </mxGeometry>
        </mxCell>
        <mxCell id="HlTpHQT_LpQZvoVh_AyP-194" value="&lt;span style=&quot;font-size: 12px; background-color: rgb(251, 251, 251);&quot;&gt;1.2:Pide direccion a la pagina&lt;/span&gt;" style="edgeLabel;html=1;align=center;verticalAlign=middle;resizable=0;points=[];" vertex="1" connectable="0" parent="HlTpHQT_LpQZvoVh_AyP-193">
          <mxGeometry x="0.5627" y="-2" relative="1" as="geometry">
            <mxPoint x="-49" y="-13" as="offset" />
          </mxGeometry>
        </mxCell>
        <mxCell id="HlTpHQT_LpQZvoVh_AyP-195" value="" style="endArrow=classic;html=1;rounded=0;" edge="1" parent="HlTpHQT_LpQZvoVh_AyP-177">
          <mxGeometry width="50" height="50" relative="1" as="geometry">
            <mxPoint x="1777" y="785" as="sourcePoint" />
            <mxPoint x="1777" y="955" as="targetPoint" />
            <Array as="points" />
          </mxGeometry>
        </mxCell>
        <mxCell id="HlTpHQT_LpQZvoVh_AyP-196" value="2[No existen dispositivos registrados]:Pedir datos de dispositivos" style="edgeLabel;html=1;align=center;verticalAlign=middle;resizable=0;points=[];" vertex="1" connectable="0" parent="HlTpHQT_LpQZvoVh_AyP-195">
          <mxGeometry x="0.1743" y="2" relative="1" as="geometry">
            <mxPoint x="118" y="-60" as="offset" />
          </mxGeometry>
        </mxCell>
        <mxCell id="HlTpHQT_LpQZvoVh_AyP-197" value="2[Si existen dispositivos registrados][Loop hasta cerrar sesion]:Pedir datos que mostrar de todos los diapositivos" style="edgeLabel;html=1;align=center;verticalAlign=middle;resizable=0;points=[];" vertex="1" connectable="0" parent="HlTpHQT_LpQZvoVh_AyP-195">
          <mxGeometry x="0.0512" y="3" relative="1" as="geometry">
            <mxPoint x="237" y="-19" as="offset" />
          </mxGeometry>
        </mxCell>
        <mxCell id="HlTpHQT_LpQZvoVh_AyP-198" value="" style="endArrow=open;html=1;rounded=0;endFill=0;dashed=1;dashPattern=12 12;" edge="1" parent="HlTpHQT_LpQZvoVh_AyP-177">
          <mxGeometry width="50" height="50" relative="1" as="geometry">
            <mxPoint x="1657" y="929" as="sourcePoint" />
            <mxPoint x="1657" y="749" as="targetPoint" />
          </mxGeometry>
        </mxCell>
        <mxCell id="HlTpHQT_LpQZvoVh_AyP-199" value="2.3[No existen dispositivos registrados]:Sin datos que mostrar" style="edgeLabel;html=1;align=center;verticalAlign=middle;resizable=0;points=[];" vertex="1" connectable="0" parent="HlTpHQT_LpQZvoVh_AyP-198">
          <mxGeometry x="0.3346" relative="1" as="geometry">
            <mxPoint x="-103" y="-20" as="offset" />
          </mxGeometry>
        </mxCell>
        <mxCell id="HlTpHQT_LpQZvoVh_AyP-200" value="&lt;div&gt;2.3[Si existen dispositivos registrados][Loop hasta cerrar sesion]:Envio de datos&lt;br&gt;&lt;/div&gt;&lt;div&gt;&lt;br&gt;&lt;/div&gt;" style="edgeLabel;html=1;align=center;verticalAlign=middle;resizable=0;points=[];" vertex="1" connectable="0" parent="HlTpHQT_LpQZvoVh_AyP-198">
          <mxGeometry x="-0.4074" y="3" relative="1" as="geometry">
            <mxPoint x="-140" y="-57" as="offset" />
          </mxGeometry>
        </mxCell>
        <mxCell id="HlTpHQT_LpQZvoVh_AyP-201" value="" style="endArrow=open;html=1;rounded=0;endFill=0;dashed=1;dashPattern=12 12;" edge="1" parent="HlTpHQT_LpQZvoVh_AyP-177">
          <mxGeometry width="50" height="50" relative="1" as="geometry">
            <mxPoint x="1115" y="372.52" as="sourcePoint" />
            <mxPoint x="895" y="372.52" as="targetPoint" />
          </mxGeometry>
        </mxCell>
        <mxCell id="HlTpHQT_LpQZvoVh_AyP-202" value="&lt;span style=&quot;font-size: 12px; background-color: rgb(251, 251, 251);&quot;&gt;1.3:Entrega direccion de la pagina&lt;/span&gt;" style="edgeLabel;html=1;align=center;verticalAlign=middle;resizable=0;points=[];" vertex="1" connectable="0" parent="HlTpHQT_LpQZvoVh_AyP-201">
          <mxGeometry x="0.103" y="-5" relative="1" as="geometry">
            <mxPoint x="47" y="-10" as="offset" />
          </mxGeometry>
        </mxCell>
        <mxCell id="HlTpHQT_LpQZvoVh_AyP-203" value="" style="endArrow=none;html=1;rounded=0;entryX=0;entryY=1;entryDx=0;entryDy=0;exitX=1;exitY=0.5;exitDx=0;exitDy=0;endFill=0;" edge="1" parent="HlTpHQT_LpQZvoVh_AyP-177" source="HlTpHQT_LpQZvoVh_AyP-183" target="HlTpHQT_LpQZvoVh_AyP-186">
          <mxGeometry width="50" height="50" relative="1" as="geometry">
            <mxPoint x="732" y="648" as="sourcePoint" />
            <mxPoint x="912" y="538" as="targetPoint" />
          </mxGeometry>
        </mxCell>
        <mxCell id="HlTpHQT_LpQZvoVh_AyP-204" value="" style="endArrow=open;html=1;rounded=0;endFill=0;" edge="1" parent="HlTpHQT_LpQZvoVh_AyP-177">
          <mxGeometry width="50" height="50" relative="1" as="geometry">
            <mxPoint x="1209" y="608" as="sourcePoint" />
            <mxPoint x="839" y="768" as="targetPoint" />
          </mxGeometry>
        </mxCell>
        <mxCell id="HlTpHQT_LpQZvoVh_AyP-205" value="&lt;div&gt;2.4[Si existen dispositivos registrados][Loop hasta cerrar sesion]:Actualizar pagina con datos nuevos&lt;br&gt;&lt;/div&gt;" style="edgeLabel;html=1;align=center;verticalAlign=middle;resizable=0;points=[];" vertex="1" connectable="0" parent="HlTpHQT_LpQZvoVh_AyP-204">
          <mxGeometry x="0.2529" y="-2" relative="1" as="geometry">
            <mxPoint x="43" y="11" as="offset" />
          </mxGeometry>
        </mxCell>
        <mxCell id="HlTpHQT_LpQZvoVh_AyP-206" value="2.4[No existen dispositivos registrados]:Dispositivos no existentes" style="edgeLabel;html=1;align=center;verticalAlign=middle;resizable=0;points=[];" vertex="1" connectable="0" parent="HlTpHQT_LpQZvoVh_AyP-204">
          <mxGeometry x="0.0482" y="-1" relative="1" as="geometry">
            <mxPoint as="offset" />
          </mxGeometry>
        </mxCell>
        <mxCell id="HlTpHQT_LpQZvoVh_AyP-207" value="" style="endArrow=open;html=1;rounded=0;endFill=0;dashed=1;dashPattern=12 12;" edge="1" parent="HlTpHQT_LpQZvoVh_AyP-177">
          <mxGeometry width="50" height="50" relative="1" as="geometry">
            <mxPoint x="407" y="968.05" as="sourcePoint" />
            <mxPoint x="167" y="968.05" as="targetPoint" />
          </mxGeometry>
        </mxCell>
        <mxCell id="HlTpHQT_LpQZvoVh_AyP-208" value="&lt;div&gt;2.6[Si existen datos registrados]:Mostrar datos de todos los dispositivos&lt;br&gt;&lt;/div&gt;" style="edgeLabel;html=1;align=center;verticalAlign=middle;resizable=0;points=[];" vertex="1" connectable="0" parent="HlTpHQT_LpQZvoVh_AyP-207">
          <mxGeometry x="0.4869" y="-5" relative="1" as="geometry">
            <mxPoint x="89" y="-15" as="offset" />
          </mxGeometry>
        </mxCell>
        <mxCell id="HlTpHQT_LpQZvoVh_AyP-209" value="2.2[Si existen datos registrados][Loop hasta cerrar sesion]:Enviar datos de dispositivos de la base de datos" style="html=1;verticalAlign=bottom;startArrow=circle;startFill=1;endArrow=open;startSize=6;endSize=8;curved=0;rounded=0;dashed=1;dashPattern=12 12;entryX=1;entryY=0;entryDx=0;entryDy=5;entryPerimeter=0;" edge="1" parent="HlTpHQT_LpQZvoVh_AyP-177">
          <mxGeometry x="-1" y="-133" width="80" relative="1" as="geometry">
            <mxPoint x="2084" y="1066" as="sourcePoint" />
            <mxPoint x="1954" y="1066" as="targetPoint" />
            <mxPoint x="133" y="122" as="offset" />
          </mxGeometry>
        </mxCell>
        <mxCell id="HlTpHQT_LpQZvoVh_AyP-210" value="2.2[No existen datos registrados]:No se encontraron datos en la base de datos" style="edgeLabel;html=1;align=center;verticalAlign=middle;resizable=0;points=[];" vertex="1" connectable="0" parent="HlTpHQT_LpQZvoVh_AyP-209">
          <mxGeometry x="-0.6" relative="1" as="geometry">
            <mxPoint x="91" y="-38" as="offset" />
          </mxGeometry>
        </mxCell>
        <mxCell id="HlTpHQT_LpQZvoVh_AyP-211" value="Usuario ya inicio sesion" style="shape=note;whiteSpace=wrap;html=1;backgroundOutline=1;darkOpacity=0.05;size=19;" vertex="1" parent="HlTpHQT_LpQZvoVh_AyP-177">
          <mxGeometry x="15" y="638" width="80" height="100" as="geometry" />
        </mxCell>
        <mxCell id="HlTpHQT_LpQZvoVh_AyP-212" value="Los datos constantemente se actualizan" style="shape=note;whiteSpace=wrap;html=1;backgroundOutline=1;darkOpacity=0.05;size=19;" vertex="1" parent="HlTpHQT_LpQZvoVh_AyP-177">
          <mxGeometry x="1403" y="978" width="101" height="100" as="geometry" />
        </mxCell>
        <mxCell id="HlTpHQT_LpQZvoVh_AyP-213" value="" style="endArrow=open;html=1;rounded=0;endFill=0;" edge="1" parent="HlTpHQT_LpQZvoVh_AyP-177">
          <mxGeometry width="50" height="50" relative="1" as="geometry">
            <mxPoint x="225" y="877.9999999999999" as="sourcePoint" />
            <mxPoint x="425" y="877.9999999999999" as="targetPoint" />
          </mxGeometry>
        </mxCell>
        <mxCell id="HlTpHQT_LpQZvoVh_AyP-214" value="&lt;div&gt;4[Si existen datos registrados]:Cerrar sesion&lt;br&gt;&lt;/div&gt;" style="edgeLabel;html=1;align=center;verticalAlign=middle;resizable=0;points=[];" vertex="1" connectable="0" parent="HlTpHQT_LpQZvoVh_AyP-213">
          <mxGeometry x="-0.1067" y="-2" relative="1" as="geometry">
            <mxPoint x="10" y="-16" as="offset" />
          </mxGeometry>
        </mxCell>
        <mxCell id="HlTpHQT_LpQZvoVh_AyP-215" value="" style="group" vertex="1" connectable="0" parent="HlTpHQT_LpQZvoVh_AyP-177">
          <mxGeometry x="1959" y="1011" width="120" as="geometry" />
        </mxCell>
        <mxCell id="HlTpHQT_LpQZvoVh_AyP-216" value="" style="endArrow=open;endFill=1;endSize=12;html=1;rounded=0;" edge="1" parent="HlTpHQT_LpQZvoVh_AyP-215">
          <mxGeometry width="160" relative="1" as="geometry">
            <mxPoint as="sourcePoint" />
            <mxPoint x="112" as="targetPoint" />
          </mxGeometry>
        </mxCell>
        <mxCell id="HlTpHQT_LpQZvoVh_AyP-217" value="2.1[Si existen datos registrados][Loop hasta cerrar sesion]:Buscar datos en la base de datos" style="edgeLabel;html=1;align=center;verticalAlign=middle;resizable=0;points=[];" vertex="1" connectable="0" parent="HlTpHQT_LpQZvoVh_AyP-216">
          <mxGeometry x="0.6488" y="-1" relative="1" as="geometry">
            <mxPoint x="128" y="-17" as="offset" />
          </mxGeometry>
        </mxCell>
        <mxCell id="HlTpHQT_LpQZvoVh_AyP-218" value="2.1[No existen datos registrados]:Buscar datos en la base de datos" style="html=1;verticalAlign=bottom;startArrow=none;startFill=0;endArrow=oval;curved=0;rounded=0;endFill=1;targetPerimeterSpacing=2;endSize=14;" edge="1" parent="HlTpHQT_LpQZvoVh_AyP-215">
          <mxGeometry x="1" y="56" width="80" relative="1" as="geometry">
            <mxPoint x="-10" as="sourcePoint" />
            <mxPoint x="110" as="targetPoint" />
            <mxPoint x="50" y="30" as="offset" />
            <Array as="points">
              <mxPoint x="46" />
            </Array>
          </mxGeometry>
        </mxCell>
        <mxCell id="HlTpHQT_LpQZvoVh_AyP-219" value="3.5[Si existen datos registrados]:Enviar datos del dispositivo por ID de la base de datos" style="html=1;verticalAlign=bottom;startArrow=circle;startFill=1;endArrow=open;startSize=6;endSize=8;curved=0;rounded=0;dashed=1;dashPattern=12 12;entryX=1;entryY=0;entryDx=0;entryDy=5;entryPerimeter=0;" edge="1" parent="HlTpHQT_LpQZvoVh_AyP-177">
          <mxGeometry x="-1" y="-87" width="80" relative="1" as="geometry">
            <mxPoint x="2080" y="1141" as="sourcePoint" />
            <mxPoint x="1950" y="1141" as="targetPoint" />
            <mxPoint x="87" y="81" as="offset" />
          </mxGeometry>
        </mxCell>
        <mxCell id="HlTpHQT_LpQZvoVh_AyP-220" value="" style="endArrow=classic;html=1;rounded=0;endFill=1;" edge="1" parent="HlTpHQT_LpQZvoVh_AyP-177">
          <mxGeometry width="50" height="50" relative="1" as="geometry">
            <mxPoint x="195" y="768.1999999999998" as="sourcePoint" />
            <mxPoint x="445" y="768" as="targetPoint" />
          </mxGeometry>
        </mxCell>
        <mxCell id="HlTpHQT_LpQZvoVh_AyP-221" value="1:Cambiar de pagina a administracion de dispositivos" style="edgeLabel;html=1;align=center;verticalAlign=middle;resizable=0;points=[];" vertex="1" connectable="0" parent="HlTpHQT_LpQZvoVh_AyP-220">
          <mxGeometry x="-0.0828" y="-3" relative="1" as="geometry">
            <mxPoint x="7" y="-20" as="offset" />
          </mxGeometry>
        </mxCell>
        <mxCell id="HlTpHQT_LpQZvoVh_AyP-222" value="" style="endArrow=open;html=1;rounded=0;endFill=0;dashed=1;dashPattern=12 12;" edge="1" parent="HlTpHQT_LpQZvoVh_AyP-177">
          <mxGeometry width="50" height="50" relative="1" as="geometry">
            <mxPoint x="405" y="1008.0500000000004" as="sourcePoint" />
            <mxPoint x="165" y="1008.0500000000004" as="targetPoint" />
          </mxGeometry>
        </mxCell>
        <mxCell id="HlTpHQT_LpQZvoVh_AyP-223" value="&lt;div&gt;3.9[Si existen datos registrados]:Mostrar datos del dispositivo por ID&lt;br&gt;&lt;/div&gt;" style="edgeLabel;html=1;align=center;verticalAlign=middle;resizable=0;points=[];" vertex="1" connectable="0" parent="HlTpHQT_LpQZvoVh_AyP-222">
          <mxGeometry x="0.4869" y="-5" relative="1" as="geometry">
            <mxPoint x="86" y="-15" as="offset" />
          </mxGeometry>
        </mxCell>
        <mxCell id="HlTpHQT_LpQZvoVh_AyP-224" value="" style="endArrow=classic;html=1;rounded=0;endFill=1;" edge="1" parent="HlTpHQT_LpQZvoVh_AyP-177">
          <mxGeometry width="50" height="50" relative="1" as="geometry">
            <mxPoint x="205" y="838.1999999999998" as="sourcePoint" />
            <mxPoint x="455" y="838" as="targetPoint" />
          </mxGeometry>
        </mxCell>
        <mxCell id="HlTpHQT_LpQZvoVh_AyP-225" value="&lt;div&gt;3[Si existen dispositivos registrados]:Seleccionar dispositivo por ID&lt;br&gt;&lt;/div&gt;" style="edgeLabel;html=1;align=center;verticalAlign=middle;resizable=0;points=[];" vertex="1" connectable="0" parent="HlTpHQT_LpQZvoVh_AyP-224">
          <mxGeometry x="-0.0828" y="-3" relative="1" as="geometry">
            <mxPoint x="20" y="-20" as="offset" />
          </mxGeometry>
        </mxCell>
        <mxCell id="HlTpHQT_LpQZvoVh_AyP-226" value="" style="endArrow=open;html=1;rounded=0;endFill=0;dashed=1;dashPattern=12 12;" edge="1" parent="HlTpHQT_LpQZvoVh_AyP-177">
          <mxGeometry width="50" height="50" relative="1" as="geometry">
            <mxPoint x="645" y="488" as="sourcePoint" />
            <mxPoint x="645" y="638" as="targetPoint" />
          </mxGeometry>
        </mxCell>
        <mxCell id="HlTpHQT_LpQZvoVh_AyP-227" value="&lt;span style=&quot;font-size: 12px; background-color: rgb(251, 251, 251);&quot;&gt;1.4:Reedirecciona a administrador de dispositivos&lt;/span&gt;" style="edgeLabel;html=1;align=center;verticalAlign=middle;resizable=0;points=[];" vertex="1" connectable="0" parent="HlTpHQT_LpQZvoVh_AyP-226">
          <mxGeometry x="0.103" y="-5" relative="1" as="geometry">
            <mxPoint x="105" y="-63" as="offset" />
          </mxGeometry>
        </mxCell>
        <mxCell id="HlTpHQT_LpQZvoVh_AyP-228" style="edgeStyle=orthogonalEdgeStyle;rounded=0;orthogonalLoop=1;jettySize=auto;html=1;endArrow=none;endFill=0;" edge="1" parent="HlTpHQT_LpQZvoVh_AyP-177" source="HlTpHQT_LpQZvoVh_AyP-230" target="HlTpHQT_LpQZvoVh_AyP-181">
          <mxGeometry relative="1" as="geometry">
            <Array as="points">
              <mxPoint x="1265" y="265" />
              <mxPoint x="1265" y="265" />
            </Array>
          </mxGeometry>
        </mxCell>
        <mxCell id="HlTpHQT_LpQZvoVh_AyP-229" style="edgeStyle=orthogonalEdgeStyle;rounded=0;orthogonalLoop=1;jettySize=auto;html=1;" edge="1" parent="HlTpHQT_LpQZvoVh_AyP-177" source="HlTpHQT_LpQZvoVh_AyP-230" target="HlTpHQT_LpQZvoVh_AyP-184">
          <mxGeometry relative="1" as="geometry">
            <Array as="points">
              <mxPoint x="1893" y="495" />
              <mxPoint x="1893" y="495" />
            </Array>
          </mxGeometry>
        </mxCell>
        <mxCell id="HlTpHQT_LpQZvoVh_AyP-230" value="Dispositivos" style="rounded=0;whiteSpace=wrap;html=1;" vertex="1" parent="HlTpHQT_LpQZvoVh_AyP-177">
          <mxGeometry x="1693" y="246.5" width="250" height="70" as="geometry" />
        </mxCell>
        <mxCell id="HlTpHQT_LpQZvoVh_AyP-231" value="" style="html=1;verticalAlign=bottom;startArrow=none;startFill=0;endArrow=oval;curved=0;rounded=0;endFill=1;targetPerimeterSpacing=2;endSize=14;" edge="1" parent="HlTpHQT_LpQZvoVh_AyP-177">
          <mxGeometry x="1" y="64" width="80" relative="1" as="geometry">
            <mxPoint x="1952.996666666667" y="1105" as="sourcePoint" />
            <mxPoint x="2083" y="1105" as="targetPoint" />
            <mxPoint x="50" y="24" as="offset" />
            <Array as="points">
              <mxPoint x="2002.4633333333331" y="1105" />
            </Array>
          </mxGeometry>
        </mxCell>
        <mxCell id="HlTpHQT_LpQZvoVh_AyP-232" value="" style="endArrow=classic;html=1;rounded=0;" edge="1" parent="HlTpHQT_LpQZvoVh_AyP-177">
          <mxGeometry width="50" height="50" relative="1" as="geometry">
            <mxPoint x="549.78" y="745" as="sourcePoint" />
            <mxPoint x="549.78" y="545" as="targetPoint" />
          </mxGeometry>
        </mxCell>
        <mxCell id="HlTpHQT_LpQZvoVh_AyP-233" value="&lt;div&gt;3.1[Si existen datos registrados]:Enviar peticion de cambio de pagina&lt;/div&gt;" style="edgeLabel;html=1;align=center;verticalAlign=middle;resizable=0;points=[];" vertex="1" connectable="0" parent="HlTpHQT_LpQZvoVh_AyP-232">
          <mxGeometry x="0.0013" y="2" relative="1" as="geometry">
            <mxPoint x="-149" y="-50" as="offset" />
          </mxGeometry>
        </mxCell>
        <mxCell id="HlTpHQT_LpQZvoVh_AyP-234" value="" style="endArrow=classic;html=1;rounded=0;" edge="1" parent="HlTpHQT_LpQZvoVh_AyP-177">
          <mxGeometry width="50" height="50" relative="1" as="geometry">
            <mxPoint x="929" y="235" as="sourcePoint" />
            <mxPoint x="1179" y="235" as="targetPoint" />
          </mxGeometry>
        </mxCell>
        <mxCell id="HlTpHQT_LpQZvoVh_AyP-235" value="&lt;span style=&quot;font-size: 12px; background-color: rgb(251, 251, 251);&quot;&gt;3.2&lt;/span&gt;[Si existen datos registrados]&lt;span style=&quot;font-size: 12px; background-color: rgb(251, 251, 251);&quot;&gt;:Peticion de direccion de dispositivo por ID&lt;/span&gt;" style="edgeLabel;html=1;align=center;verticalAlign=middle;resizable=0;points=[];" vertex="1" connectable="0" parent="HlTpHQT_LpQZvoVh_AyP-234">
          <mxGeometry x="0.5627" y="-2" relative="1" as="geometry">
            <mxPoint x="-49" y="-13" as="offset" />
          </mxGeometry>
        </mxCell>
        <mxCell id="HlTpHQT_LpQZvoVh_AyP-236" value="" style="endArrow=classic;html=1;rounded=0;" edge="1" parent="HlTpHQT_LpQZvoVh_AyP-177">
          <mxGeometry width="50" height="50" relative="1" as="geometry">
            <mxPoint x="1943" y="475" as="sourcePoint" />
            <mxPoint x="1943" y="645" as="targetPoint" />
            <Array as="points" />
          </mxGeometry>
        </mxCell>
        <mxCell id="HlTpHQT_LpQZvoVh_AyP-237" value="3.3[Si existen dispositivos registrados]:Pedir datos de dispositivos por ID" style="edgeLabel;html=1;align=center;verticalAlign=middle;resizable=0;points=[];" vertex="1" connectable="0" parent="HlTpHQT_LpQZvoVh_AyP-236">
          <mxGeometry x="0.1743" y="2" relative="1" as="geometry">
            <mxPoint x="134" y="-60" as="offset" />
          </mxGeometry>
        </mxCell>
        <mxCell id="HlTpHQT_LpQZvoVh_AyP-238" value="" style="endArrow=open;endFill=1;endSize=12;html=1;rounded=0;" edge="1" parent="HlTpHQT_LpQZvoVh_AyP-177">
          <mxGeometry width="160" relative="1" as="geometry">
            <mxPoint x="1980.0700000000002" y="1105" as="sourcePoint" />
            <mxPoint x="2079.0033333333336" y="1105" as="targetPoint" />
          </mxGeometry>
        </mxCell>
        <mxCell id="HlTpHQT_LpQZvoVh_AyP-239" value="3.4[Si existen datos registrados]:Buscar datos del dispositivo por ID en la base de datos" style="edgeLabel;html=1;align=center;verticalAlign=middle;resizable=0;points=[];" vertex="1" connectable="0" parent="HlTpHQT_LpQZvoVh_AyP-238">
          <mxGeometry x="0.6488" y="-1" relative="1" as="geometry">
            <mxPoint x="106" y="-21" as="offset" />
          </mxGeometry>
        </mxCell>
        <mxCell id="HlTpHQT_LpQZvoVh_AyP-240" value="" style="endArrow=open;html=1;rounded=0;endFill=0;dashed=1;dashPattern=12 12;" edge="1" parent="HlTpHQT_LpQZvoVh_AyP-177">
          <mxGeometry width="50" height="50" relative="1" as="geometry">
            <mxPoint x="1847" y="785" as="sourcePoint" />
            <mxPoint x="1847" y="605" as="targetPoint" />
          </mxGeometry>
        </mxCell>
        <mxCell id="HlTpHQT_LpQZvoVh_AyP-241" value="&lt;div&gt;3.6[Si existen dispositivos registrados]:Enviar datos de dispositivos por ID&lt;/div&gt;" style="edgeLabel;html=1;align=center;verticalAlign=middle;resizable=0;points=[];" vertex="1" connectable="0" parent="HlTpHQT_LpQZvoVh_AyP-240">
          <mxGeometry x="-0.4074" y="3" relative="1" as="geometry">
            <mxPoint x="99" y="-67" as="offset" />
          </mxGeometry>
        </mxCell>
        <mxCell id="HlTpHQT_LpQZvoVh_AyP-242" value="" style="endArrow=open;html=1;rounded=0;endFill=0;dashed=1;dashPattern=12 12;" edge="1" parent="HlTpHQT_LpQZvoVh_AyP-177">
          <mxGeometry width="50" height="50" relative="1" as="geometry">
            <mxPoint x="1139" y="295" as="sourcePoint" />
            <mxPoint x="919" y="295" as="targetPoint" />
          </mxGeometry>
        </mxCell>
        <mxCell id="HlTpHQT_LpQZvoVh_AyP-243" value="&lt;span style=&quot;font-size: 12px; background-color: rgb(251, 251, 251);&quot;&gt;3.7&lt;/span&gt;[Si existen datos registrados]&lt;span style=&quot;font-size: 12px; background-color: rgb(251, 251, 251);&quot;&gt;:Direccion de dispositivo por ID&lt;/span&gt;" style="edgeLabel;html=1;align=center;verticalAlign=middle;resizable=0;points=[];" vertex="1" connectable="0" parent="HlTpHQT_LpQZvoVh_AyP-242">
          <mxGeometry x="0.103" y="-5" relative="1" as="geometry">
            <mxPoint x="47" y="-10" as="offset" />
          </mxGeometry>
        </mxCell>
        <mxCell id="HlTpHQT_LpQZvoVh_AyP-244" value="" style="endArrow=open;html=1;rounded=0;endFill=0;dashed=1;dashPattern=12 12;" edge="1" parent="HlTpHQT_LpQZvoVh_AyP-177">
          <mxGeometry width="50" height="50" relative="1" as="geometry">
            <mxPoint x="679" y="565" as="sourcePoint" />
            <mxPoint x="679" y="715" as="targetPoint" />
          </mxGeometry>
        </mxCell>
        <mxCell id="HlTpHQT_LpQZvoVh_AyP-245" value="&lt;span style=&quot;font-size: 12px; background-color: rgb(251, 251, 251);&quot;&gt;3.8&lt;/span&gt;[Si existen datos registrados]&lt;span style=&quot;font-size: 12px; background-color: rgb(251, 251, 251);&quot;&gt;:cambio de pagina&lt;/span&gt;" style="edgeLabel;html=1;align=center;verticalAlign=middle;resizable=0;points=[];" vertex="1" connectable="0" parent="HlTpHQT_LpQZvoVh_AyP-244">
          <mxGeometry x="0.103" y="-5" relative="1" as="geometry">
            <mxPoint x="115" y="-32" as="offset" />
          </mxGeometry>
        </mxCell>
        <mxCell id="HlTpHQT_LpQZvoVh_AyP-246" value="" style="endArrow=classic;html=1;rounded=0;" edge="1" parent="HlTpHQT_LpQZvoVh_AyP-177">
          <mxGeometry width="50" height="50" relative="1" as="geometry">
            <mxPoint x="529" y="815" as="sourcePoint" />
            <mxPoint x="529" y="615" as="targetPoint" />
          </mxGeometry>
        </mxCell>
        <mxCell id="HlTpHQT_LpQZvoVh_AyP-247" value="&lt;div&gt;4.1[Si existen datos registrados]:Peticion de volver al login&lt;/div&gt;" style="edgeLabel;html=1;align=center;verticalAlign=middle;resizable=0;points=[];" vertex="1" connectable="0" parent="HlTpHQT_LpQZvoVh_AyP-246">
          <mxGeometry x="0.0013" y="2" relative="1" as="geometry">
            <mxPoint x="-149" y="-50" as="offset" />
          </mxGeometry>
        </mxCell>
      </root>
    </mxGraphModel>
  </diagram>
</mxfile>
